<?xml version="1.0" encoding="UTF-8" standalone="no"?>


<svg
   width="900"
   height="650"
   viewBox="0 0 238.12499 171.97917"
   version="1.1"
   id="svg1"
   xml:space="preserve"
   xmlns="http://www.w3.org/2000/svg"
   xmlns:svg="http://www.w3.org/2000/svg"><defs
     id="defs1" /><g
     id="layer1"><path
       d="m 62.934169,127.15379 q -6.029983,0 -11.068735,-2.06506 -5.038753,-2.14767 -8.508058,-6.11259 l 8.342853,-8.34285 q 1.569447,2.31287 4.543137,3.79972 3.056293,1.40424 6.442995,1.40424 3.056293,0 5.28656,-1.07383 2.230268,-1.07384 3.469305,-3.0563 1.32164,-1.98246 1.32164,-4.70834 0,-2.72588 -1.32164,-4.62574 -1.239037,-1.98246 -3.717112,-3.056292 -2.395473,-1.073833 -5.782175,-1.073833 -1.569448,0 -3.3041,0.247808 -1.65205,0.165205 -2.808485,0.578217 l 5.699572,-7.186417 q 2.31287,-0.66082 4.377933,-1.073833 2.147665,-0.495615 3.96492,-0.495615 4.460535,0 8.012442,2.147665 3.551908,2.065063 5.616971,5.94738 2.147665,3.79972 2.147665,9.08628 0,5.78217 -2.891088,10.24271 -2.808485,4.46053 -7.92984,6.93861 -5.038753,2.47807 -11.89476,2.47807 z M 55.830354,99.06894 v -7.186417 l 14.20763,-16.685706 14.53804,-0.0826 -14.785848,16.85091 z M 46.991886,78.91393 V 67.927797 h 37.584138 v 7.186418 L 74.415916,78.91393 Z m 68.807884,48.23986 q -7.02121,0 -12.72078,-3.79971 -5.699575,-3.79972 -9.003675,-10.57312 -3.221498,-6.85601 -3.221498,-15.777082 0,-9.003673 3.221498,-15.694476 3.221497,-6.773405 8.838465,-10.490517 5.61697,-3.799715 12.72079,-3.799715 7.18641,0 12.80338,3.799715 5.61697,3.717112 8.83847,10.490517 3.3041,6.773406 3.3041,15.777078 0,9.00367 -3.3041,15.77708 -3.2215,6.7734 -8.83847,10.57312 -5.53436,3.71711 -12.63818,3.71711 z m -0.0826,-11.48175 q 3.63451,0 6.27779,-2.06506 2.64328,-2.14766 4.04752,-6.27779 1.48685,-4.21273 1.48685,-10.24271 0,-6.112585 -1.48685,-10.24271 -1.40424,-4.130125 -4.04752,-6.195188 -2.64328,-2.147665 -6.36039,-2.147665 -3.55191,0 -6.27779,2.065063 -2.64328,2.065062 -4.04753,6.195188 -1.40424,4.130125 -1.40424,10.24271 0,6.112582 1.40424,10.242712 1.40425,4.13012 4.04753,6.27779 2.72588,2.14766 6.36039,2.14766 z m 32.54541,10.57312 34.94086,-58.317363 h 11.56435 l -34.94086,58.317363 z m 36.51031,0.82603 q -3.3867,0 -6.19519,-1.65205 -2.72588,-1.65205 -4.37793,-4.37793 -1.65205,-2.80849 -1.65205,-6.19519 0,-3.46931 1.65205,-6.11259 1.65205,-2.72588 4.37793,-4.37793 2.72588,-1.65205 6.11259,-1.65205 3.5519,0 6.27779,1.65205 2.80848,1.65205 4.46053,4.37793 1.65205,2.64328 1.65205,6.11259 0,3.3867 -1.65205,6.19519 -1.65205,2.80848 -4.46053,4.46053 -2.72589,1.56945 -6.19519,1.56945 z m 0,-8.59066 q 1.56945,0 2.56068,-0.99123 0.99123,-0.99123 0.99123,-2.64328 0,-1.48685 -0.99123,-2.47808 -0.99123,-1.07383 -2.56068,-1.07383 -1.48685,0 -2.47808,1.07383 -0.99123,0.99123 -0.99123,2.47808 0,1.65205 0.99123,2.64328 0.99123,0.99123 2.47808,0.99123 z M 158.17488,91.386908 q -3.3867,0 -6.19518,-1.569448 -2.72589,-1.65205 -4.37794,-4.377932 -1.65205,-2.808486 -1.65205,-6.277791 0,-3.386702 1.65205,-6.112585 1.65205,-2.725882 4.37794,-4.29533 2.72588,-1.65205 6.11258,-1.65205 3.55191,0 6.27779,1.65205 2.80849,1.569448 4.46054,4.29533 1.65205,2.725883 1.65205,6.112585 0,3.469305 -1.65205,6.277791 -1.65205,2.725882 -4.46054,4.377932 -2.72588,1.569448 -6.19519,1.569448 z m 0,-8.590661 q 1.56945,0 2.56068,-0.99123 0.99123,-0.99123 0.99123,-2.560677 0,-1.569448 -0.99123,-2.560678 -0.99123,-0.99123 -2.56068,-0.99123 -1.48684,0 -2.47807,0.99123 -0.99123,0.99123 -0.99123,2.560678 0,1.569447 0.99123,2.560677 0.99123,0.99123 2.47807,0.99123 z"
       id="text1"
       style="font-weight:bold;font-size:82.6025px;font-family:Outfit;-inkscape-font-specification:'Outfit, Bold';fill:#ff0063;stroke-width:2.32541;stroke-linecap:round;stroke-linejoin:round;fill-opacity:1"
       aria-label="30%" /><path
       d="m 167.90024,55.57172 q -1.92701,0 -3.60376,-0.700731 -1.65172,-0.700731 -2.90302,-1.92701 -1.22628,-1.251305 -1.92701,-2.903028 -0.70073,-1.676748 -0.70073,-3.578732 0,-1.901983 0.6757,-3.52868 0.70073,-1.651723 1.92701,-2.878002 1.25131,-1.251305 2.90303,-1.927009 1.65172,-0.700731 3.57873,-0.700731 1.95204,0 3.60376,0.700731 1.65172,0.675704 2.878,1.927009 1.25131,1.226279 1.95204,2.878002 0.70073,1.651723 0.70073,3.553706 0,1.901984 -0.70073,3.553706 -0.70073,1.651723 -1.95204,2.903028 -1.22628,1.226279 -2.878,1.92701 -1.6267,0.700731 -3.55371,0.700731 z m -0.05,-3.178315 q 1.70178,0 2.95308,-0.750783 1.25131,-0.750783 1.95204,-2.077166 0.72575,-1.326384 0.72575,-3.103237 0,-1.301357 -0.40041,-2.377479 -0.40042,-1.076123 -1.15121,-1.851932 -0.75078,-0.800835 -1.77685,-1.226279 -1.02607,-0.425443 -2.3024,-0.425443 -1.65172,0 -2.92805,0.750783 -1.25131,0.725757 -1.97707,2.05214 -0.70073,1.326383 -0.70073,3.07821 0,1.326383 0.40042,2.427532 0.42545,1.101148 1.1512,1.876957 0.75079,0.775809 1.77686,1.201253 1.05109,0.425444 2.27737,0.425444 z m 13.08863,2.903027 V 42.433017 q 0,-1.526592 0.62565,-2.702819 0.65068,-1.176227 1.82691,-1.851931 1.20125,-0.700731 2.80292,-0.700731 1.60167,0 2.62774,0.675705 1.0511,0.675704 1.55162,1.801879 0.52555,1.101148 0.52555,2.452558 l -2.47758,0.200209 q 0,-1.051097 -0.55058,-1.626697 -0.52555,-0.600626 -1.55162,-0.600626 -1.02607,0 -1.57664,0.5756 -0.52555,0.5756 -0.52555,1.576644 v 13.063624 z m -2.80292,-9.209604 v -2.878002 h 17.14288 v 2.878002 z m 10.28573,9.209604 V 41.907469 q 0,-1.426488 0.62565,-2.552662 0.62565,-1.126175 1.77685,-1.776853 1.1512,-0.650679 2.70282,-0.650679 1.17623,0 2.02711,0.400418 0.85089,0.400417 1.5266,1.101148 l -2.07717,2.102192 q -0.27529,-0.275287 -0.60063,-0.425443 -0.32534,-0.150157 -0.82586,-0.150157 -0.90094,0 -1.40146,0.500522 -0.4755,0.475496 -0.4755,1.376436 v 13.464041 z"
       id="text2"
       style="font-weight:600;font-size:25.0261px;font-family:Outfit;-inkscape-font-specification:'Outfit, Semi-Bold';fill:#ff0063;stroke-width:0.70453;stroke-linecap:round;stroke-linejoin:round;fill-opacity:1"
       aria-label="Off" /></g></svg>
