<?xml version="1.0" encoding="UTF-8" standalone="no"?>
<!-- Created with Inkscape (http://www.inkscape.org/) -->

<svg
   width="900"
   height="650"
   viewBox="0 0 238.12499 171.97917"
   version="1.1"
   id="svg1"
   inkscape:version="1.3.2 (091e20e, 2023-11-25, custom)"
   sodipodi:docname="40 percent off.svg"
   xml:space="preserve"
   xmlns:inkscape="http://www.inkscape.org/namespaces/inkscape"
   xmlns:sodipodi="http://sodipodi.sourceforge.net/DTD/sodipodi-0.dtd"
   xmlns="http://www.w3.org/2000/svg"
   xmlns:svg="http://www.w3.org/2000/svg"><sodipodi:namedview
     id="namedview1"
     pagecolor="#ffffff"
     bordercolor="#000000"
     borderopacity="0.25"
     inkscape:showpageshadow="2"
     inkscape:pageopacity="0.0"
     inkscape:pagecheckerboard="0"
     inkscape:deskcolor="#d1d1d1"
     inkscape:document-units="px"
     inkscape:zoom="0.94163161"
     inkscape:cx="416.29868"
     inkscape:cy="285.67435"
     inkscape:window-width="2400"
     inkscape:window-height="1271"
     inkscape:window-x="-9"
     inkscape:window-y="-9"
     inkscape:window-maximized="1"
     inkscape:current-layer="layer1"
     showgrid="false"><inkscape:grid
       id="grid1"
       units="px"
       originx="0"
       originy="0"
       spacingx="0.26458332"
       spacingy="0.26458334"
       empcolor="#0099e5"
       empopacity="0.30196078"
       color="#0099e5"
       opacity="0.14901961"
       empspacing="5"
       dotted="false"
       gridanglex="30"
       gridanglez="30"
       visible="false" /></sodipodi:namedview><defs
     id="defs1" /><g
     inkscape:label="Layer 1"
     inkscape:groupmode="layer"
     id="layer1"><path
       d="m 191.60439,42.64646 q -1.92701,0 -3.60376,-0.700731 -1.65172,-0.700731 -2.90302,-1.92701 -1.22628,-1.251305 -1.92701,-2.903028 -0.70073,-1.676748 -0.70073,-3.578732 0,-1.901983 0.6757,-3.52868 0.70073,-1.651723 1.92701,-2.878002 1.25131,-1.251305 2.90303,-1.927009 1.65172,-0.700731 3.57873,-0.700731 1.95204,0 3.60376,0.700731 1.65172,0.675704 2.878,1.927009 1.25131,1.226279 1.95204,2.878002 0.70073,1.651723 0.70073,3.553706 0,1.901984 -0.70073,3.553706 -0.70073,1.651723 -1.95204,2.903028 -1.22628,1.226279 -2.878,1.92701 -1.6267,0.700731 -3.55371,0.700731 z m -0.05,-3.178315 q 1.70178,0 2.95308,-0.750783 1.25131,-0.750783 1.95204,-2.077166 0.72575,-1.326384 0.72575,-3.103237 0,-1.301357 -0.40041,-2.377479 -0.40042,-1.076123 -1.15121,-1.851932 -0.75078,-0.800835 -1.77685,-1.226279 -1.02607,-0.425443 -2.3024,-0.425443 -1.65172,0 -2.92805,0.750783 -1.25131,0.725757 -1.97707,2.05214 -0.70073,1.326383 -0.70073,3.07821 0,1.326383 0.40042,2.427532 0.42545,1.101148 1.1512,1.876957 0.75079,0.775809 1.77686,1.201253 1.05109,0.425444 2.27737,0.425444 z m 13.08863,2.903027 V 29.507757 q 0,-1.526592 0.62565,-2.702819 0.65068,-1.176227 1.82691,-1.851931 1.20125,-0.700731 2.80292,-0.700731 1.60167,0 2.62774,0.675705 1.0511,0.675704 1.55162,1.801879 0.52555,1.101148 0.52555,2.452558 l -2.47758,0.200209 q 0,-1.051097 -0.55058,-1.626697 -0.52555,-0.600626 -1.55162,-0.600626 -1.02607,0 -1.57664,0.5756 -0.52555,0.5756 -0.52555,1.576644 v 13.063624 z m -2.80292,-9.209604 v -2.878002 h 17.14288 v 2.878002 z m 10.28573,9.209604 V 28.982209 q 0,-1.426488 0.62565,-2.552662 0.62565,-1.126175 1.77685,-1.776853 1.1512,-0.650679 2.70282,-0.650679 1.17623,0 2.02711,0.400418 0.85089,0.400417 1.5266,1.101148 l -2.07717,2.102192 q -0.27529,-0.275287 -0.60063,-0.425443 -0.32534,-0.150157 -0.82586,-0.150157 -0.90094,0 -1.40146,0.500522 -0.4755,0.475496 -0.4755,1.376436 v 13.464041 z"
       id="text2"
       style="font-weight:600;font-size:25.0261px;font-family:Outfit;-inkscape-font-specification:'Outfit, Semi-Bold';fill:#ff0063;fill-opacity:1;stroke-width:0.70453;stroke-linecap:round;stroke-linejoin:round"
       aria-label="Off" /><path
       d="M 31.8702,120.75443 V 108.92046 L 58.968275,70.159924 h 16.3789 v 37.903006 h 7.031779 v 12.6915 h -7.031779 v 11.14794 H 60.683344 V 120.75443 Z M 61.712384,86.281564 47.305813,108.06293 h 14.406571 z m 27.86986,13.463284 q 0,-14.749585 5.659725,-23.239172 5.745481,-8.489587 18.436981,-8.489587 12.6915,0 18.35123,8.489587 5.74548,8.489587 5.74548,23.239172 0,14.921092 -5.74548,23.410682 -5.65973,8.48958 -18.35123,8.48958 -12.6915,0 -18.436981,-8.48958 -5.659725,-8.48959 -5.659725,-23.410682 z m 33.786836,0 q 0,-8.661093 -1.88657,-13.291777 -1.88657,-4.716437 -7.80356,-4.716437 -5.91698,0 -7.80356,4.716437 -1.88657,4.630684 -1.88657,13.291777 0,5.831232 0.68602,9.690132 0.68603,3.77315 2.74411,6.17425 2.14384,2.31534 6.26,2.31534 4.11616,0 6.17425,-2.31534 2.14383,-2.4011 2.82986,-6.17425 0.68602,-3.8589 0.68602,-9.690132 z m 20.92387,-14.663832 q 0,-6.946025 3.94465,-10.719175 4.03041,-3.77315 10.37617,-3.77315 6.34575,0 10.2904,3.77315 3.94466,3.77315 3.94466,10.719175 0,6.946026 -3.94466,10.719176 -3.94465,3.773149 -10.2904,3.773149 -6.34576,0 -10.37617,-3.773149 -3.94465,-3.77315 -3.94465,-10.719176 z M 202.51951,71.531979 169.50445,131.90237 H 155.35514 L 188.3702,71.531979 Z m -43.9915,7.632053 q -4.11616,0 -4.11616,5.916984 0,5.831232 4.11616,5.831232 1.97233,0 3.08712,-1.457808 1.1148,-1.457808 1.1148,-4.373424 0,-5.916984 -4.20192,-5.916984 z m 26.58356,39.189308 q 0,-6.94603 3.94465,-10.71918 3.94466,-3.77315 10.29041,-3.77315 6.34575,0 10.29041,3.77315 3.94466,3.77315 3.94466,10.71918 0,6.94602 -3.94466,10.71917 -3.94466,3.77315 -10.29041,3.77315 -6.34575,0 -10.29041,-3.77315 -3.94465,-3.77315 -3.94465,-10.71917 z m 14.14931,-5.91699 q -1.97233,0 -3.08712,1.45781 -1.02904,1.45781 -1.02904,4.45918 0,5.83123 4.11616,5.83123 1.97233,0 3.08712,-1.45781 1.1148,-1.45781 1.1148,-4.37342 0,-2.91562 -1.1148,-4.37343 -1.11479,-1.54356 -3.08712,-1.54356 z"
       id="text3"
       style="font-weight:bold;font-size:85.7534px;font-family:Poppins;-inkscape-font-specification:'Poppins, Bold';fill:#ff0063;stroke-width:3.27667;stroke-linecap:round;stroke-linejoin:round"
       aria-label="40% " /></g></svg>
