<?xml version="1.0" encoding="UTF-8" standalone="no"?>
<!-- Created with Inkscape (http://www.inkscape.org/) -->

<svg
   width="80"
   height="80"
   viewBox="0 0 21.166666 21.166667"
   version="1.1"
   id="svg1"
   xml:space="preserve"
   xmlns="http://www.w3.org/2000/svg"
   xmlns:svg="http://www.w3.org/2000/svg"><defs
     id="defs1">
        
    </defs><g
     id="layer1">
    <path
   d="m 8.7913717,8.4745568 c -0.820998,0.963432 -2.042919,1.5744792 -3.408057,1.5744792 -1.364703,0 -2.587059,-0.6110472 -3.407622,-1.5744792 M 16.84943,13.2158 c 0.745255,-0.05158 1.453507,0.330141 1.820476,0.980845 m -4.879412,-2.821692 v 8.097977 m 5.714775,-0.927214 h 0.752655 m 0,-1.836407 h -3.62049 v -2.342501 h 2.139994 M 15.308426,13.2158 h 1.809158 m 3.14034,3.493509 -1.692929,-2.678083 m 1.692929,5.441704 v -2.763621 m -4.949498,2.763621 h 0.622932 m 2.920072,0 h 1.406494 m -9.737058,0 h 4.78756 V 11.374953 H 5.3833147 v 8.097977 h 2.217043 M 5.3833147,6.9000328 v 8.9498402 m 0,0 c -1.272417,0 -2.303671,-2.00348 -2.303671,-4.47492 0,-2.4713962 1.031254,-4.4749202 2.303671,-4.4749202 1.272417,0 2.304106,2.003524 2.304106,4.4749202 m -2.304106,4.47492 c -2.471266,0 -4.47457195,-2.00348 -4.47457195,-4.47492 0,-2.4713962 2.00330595,-4.4749202 4.47457195,-4.4749202 2.471701,0 4.475006,2.003524 4.475006,4.4749202 m -7.882628,2.90044 c 0.820563,-0.963476 2.042919,-1.574523 3.407622,-1.574523 m 12.0080803,5.311763 c 0.806197,0 1.460035,0.653664 1.460035,1.460297 0,0.806198 -0.653838,1.460037 -1.460035,1.460037 -0.806633,0 -1.460037,-0.653839 -1.460037,-1.460037 0,-0.806633 0.653404,-1.460297 1.460037,-1.460297 z m -8.3305653,0 c 0.79575,0 1.4430593,0.637122 1.4596013,1.42939 0,0.01001 4.28e-4,0.02046 4.28e-4,0.03091 0,0.806198 -0.6538393,1.460037 -1.4600373,1.460037 -0.806633,0 -1.460471,-0.653839 -1.460471,-1.460037 0,-0.806633 0.653838,-1.460297 1.460471,-1.460297 z"
   style="fill:none;stroke:#000000;stroke-width:0.365662px"
   id="path1" />
</g></svg>
