<?xml version="1.0" encoding="UTF-8" standalone="no"?>
<!-- Created with Inkscape (http://www.inkscape.org/) -->

<svg
   width="80"
   height="80"
   viewBox="0 0 21.166666 21.166667"
   version="1.1"
   id="svg1"
   xml:space="preserve"
   xmlns="http://www.w3.org/2000/svg"
   xmlns:svg="http://www.w3.org/2000/svg"><defs
     id="defs1">
        
    
        
        
        
        
        
        
        
        
        
        
        
        
        
        
        
        
    
        
    </defs><g
     id="layer1">
    

    

    <path
   d="m 11.289704,19.508186 h 4.379577 V 12.101129 H 6.5907864 v 7.407057 h 2.0279285 m -4.2621146,0 H 0.97048155 m 0,-8.900429 v 8.900429 m 0,-8.900429 L 7.6256549,6.7655231 M 14.28043,10.607757 7.6256549,6.7655231 m 9.4531811,7.0193879 c 0.681285,-0.04715 1.329522,0.301979 1.66479,0.897218 m -4.463196,-2.581 v 7.407057 m 5.2277,-0.848043 h 0.688055 m 0,-1.679721 h -3.311262 v -2.142645 h 1.957052 m -3.172694,-1.052866 h 1.654436 m 2.872468,3.195511 -1.548123,-2.449601 m 1.548123,4.977365 v -2.527764 m -4.526904,2.527764 h 0.569396 m 2.671387,0 h 1.286121 m -2.622013,-1.335575 c 0.737826,0 1.335892,0.597947 1.335892,1.335575 0,0.737587 -0.598066,1.335534 -1.335892,1.335534 -0.737429,0 -1.335495,-0.597947 -1.335495,-1.335534 0,-0.737628 0.598066,-1.335575 1.335495,-1.335575 z m -7.6199628,0 c 0.7282708,0 1.3203638,0.582777 1.3350968,1.307344 3.98e-4,0.0094 3.98e-4,0.01879 3.98e-4,0.02823 0,0.737588 -0.597667,1.335535 -1.3354942,1.335535 -0.7374287,0 -1.3354943,-0.597947 -1.3354943,-1.335535 0,-0.737628 0.5980656,-1.335574 1.3354937,-1.335574 z"
   style="fill:none;stroke:#000000;stroke-width:0.334471px"
   id="path1" />
</g></svg>
