<?xml version="1.0" encoding="UTF-8" standalone="no"?>
<!-- Created with Inkscape (http://www.inkscape.org/) -->

<svg
   width="80"
   height="80"
   viewBox="0 0 21.166666 21.166667"
   version="1.1"
   id="svg1"
   xml:space="preserve"
   xmlns="http://www.w3.org/2000/svg"
   xmlns:svg="http://www.w3.org/2000/svg"><defs
     id="defs1">
        
    
        
        
        
        
        
        
        
        
        
        
        
        
        
        
        
        
    </defs><g
     id="layer1">
    

    <path
   d="m 7.470306,18.977166 h 6.465772 V 8.0405578 H 11.885626 M 0.53239102,15.582402 v 3.394764 H 3.526092"
   style="fill:none;stroke:#000000;stroke-width:0.435825px"
   id="path1" /><path
   d="m 13.936078,18.977166 h 0.841038 m 3.943696,0 h 1.899469"
   style="fill:none;stroke:#000000;stroke-width:0.435825px"
   id="path2" /><path
   d="M 20.620281,18.977166 V 15.244638"
   style="fill:none;stroke:#000000;stroke-width:0.435825px"
   id="path3" /><path
   d="M 20.620281,15.244638 18.334277,11.627811"
   style="fill:none;stroke:#000000;stroke-width:0.435825px"
   id="path4" /><path
   d="m 13.936078,10.526834 h 2.442694"
   style="fill:none;stroke:#000000;stroke-width:0.435825px"
   id="path5" /><path
   d="m 20.620281,15.244638 h -4.88902 v -3.163362 h 2.889415"
   style="fill:none;stroke:#000000;stroke-width:0.435825px"
   id="path6" /><path
   d="m 16.749223,17.005059 c 1.089044,0 1.971589,0.882545 1.971589,1.972107 0,1.088524 -0.882545,1.971588 -1.971589,1.971588 -1.089043,0 -1.972107,-0.883064 -1.972107,-1.971588 0,-1.089562 0.883064,-1.972107 1.972107,-1.972107 z"
   style="fill:none;stroke:#000000;stroke-width:0.435825px"
   id="path7" /><path
   d="m 5.498199,17.005059 c 1.089043,0 1.972107,0.882545 1.972107,1.972107 0,1.088524 -0.883064,1.971588 -1.972107,1.971588 -1.089043,0 -1.972107,-0.883064 -1.972107,-1.971588 0,-1.089562 0.883064,-1.972107 1.972107,-1.972107 z"
   style="fill:none;stroke:#000000;stroke-width:0.435825px"
   id="path8" /><path
   d="m 19.603876,17.724688 h 1.016405"
   style="fill:none;stroke:#000000;stroke-width:0.435825px"
   id="path9" /><path
   d="M 11.885626,8.0405578 V 18.977166"
   style="fill:none;stroke:#000000;stroke-width:0.435825px"
   id="path10" /><path
   d="m 16.017141,10.526834 c 1.006548,-0.06952 1.963287,0.445683 2.45826,1.324597"
   style="fill:none;stroke:#000000;stroke-width:0.435825px"
   id="path11" /><path
   d="M 11.885626,15.582402 H 0.53239102"
   style="fill:none;stroke:#000000;stroke-width:0.435825px"
   id="path12" /><path
   d="m 2.191638,15.582402 h 3.665079 v -2.845313 c 0,-0.19664 -0.16084,-0.357999 -0.357999,-0.357999 H 2.550156 c -0.197159,0 -0.358518,0.161359 -0.358518,0.357999 z"
   style="fill:none;stroke:#000000;stroke-width:0.435825px"
   id="path13" /><path
   d="m 5.856717,15.582402 h 3.6655975 v -4.167834 c 0,-0.197159 -0.1613585,-0.358518 -0.3585175,-0.358518 H 6.215235 c -0.197159,0 -0.358518,0.161359 -0.358518,0.358518 z"
   style="fill:none;stroke:#000000;stroke-width:0.435825px"
   id="path14" /><path
   d="m 3.487179,12.37909 h 1.074516 v 1.002397 L 4.024177,13.14334 3.487179,13.381487 Z"
   style="fill:none;stroke:#000000;stroke-width:0.435825px"
   id="path15" /><path
   d="m 7.152258,11.05605 h 1.074515 v 1.002397 L 7.689775,11.820819 7.152258,12.058447 Z"
   style="fill:none;stroke:#000000;stroke-width:0.435825px"
   id="path16" />
</g></svg>
